# Blender 3.6.0
# www.blender.org
mtllib lima.mtl
o _activesonar0_Plane
v 0.400001 23.600000 0.050001
v 0.400001 22.800001 0.050001
v -0.400001 22.800001 0.050001
v -0.400001 23.600000 0.050001
s 0
usemtl None.001
f 1 2 3 4
o _hydrophone0_Plane
v 0.400001 23.400002 0.050001
v 0.400001 22.600000 0.050001
v -0.400001 22.600000 0.050001
v -0.400001 23.400002 0.050001
s 0
usemtl None.001
f 5 6 7 8
o _hydrophone1_Plane
v 0.400001 0.400001 0.050001
v 0.400001 -0.400001 0.050001
v -0.400001 -0.400001 0.050001
v -0.400001 0.400001 0.050001
s 0
usemtl None.001
f 9 10 11 12
o _propulsor0_Plane
v 0.400001 -33.599998 0.050001
v 0.400001 -34.400002 0.050001
v -0.400001 -34.400002 0.050001
v -0.400001 -33.599998 0.050001
s 0
usemtl None.001
f 13 14 15 16
o _screw0_Plane
v 2.200001 -34.700001 0.000001
v 0.360001 -34.400002 0.000001
v 0.500001 -33.599998 0.000001
s 0
usemtl _screw0_mat.003
f 17 18 19
o _tube0_Plane
v -0.600001 25.500000 0.050001
v -0.600001 24.700001 0.050001
v -1.400001 24.700001 0.050001
v -1.400001 25.500000 0.050001
s 0
usemtl None.001
f 20 21 22 23
o _tube1_Plane
v 1.400001 25.500000 0.050001
v 1.400001 24.700001 0.050001
v 0.600001 24.700001 0.050001
v 0.600001 25.500000 0.050001
s 0
usemtl None.001
f 24 25 26 27
o _tube2_Plane
v -1.700001 -20.600000 0.050001
v -1.700001 -21.400002 0.050001
v -2.500001 -21.400002 0.050001
v -2.500001 -20.600000 0.050001
s 0
usemtl None.001
f 28 29 30 31
o _tube3_Plane
v 2.500001 -20.600000 0.050001
v 2.500001 -21.400002 0.050001
v 1.700001 -21.400002 0.050001
v 1.700001 -20.600000 0.050001
s 0
usemtl None.001
f 32 33 34 35
o plane0_Plane
v -2.890001 19.400002 -0.400001
v -5.080000 19.450001 -0.400001
v -5.080000 20.740000 -0.400001
v -2.880001 20.740000 -0.400001
s 0
usemtl plane0_mat.001
f 36 37 38 39
o plane10_Plane
v 2.500001 -20.000000 0.600001
v 2.300001 -22.000000 0.600001
v 2.050001 -21.900002 0.600001
v 2.250001 -20.100000 0.600001
s 0
usemtl plane10_mat.001
f 40 41 42 43
o plane1_Plane
v 2.880001 20.740000 -0.300001
v 5.080000 20.740000 -0.300001
v 5.080000 19.450001 -0.300001
v 2.890001 19.400002 -0.300001
s 0
usemtl plane1_mat.001
f 44 45 46 47
o plane2_Plane
v -0.600001 -29.480001 -0.200001
v -5.230000 -29.450001 -0.200001
v -5.230000 -27.639999 -0.200001
v -1.170001 -26.370001 -0.200001
s 0
usemtl plane2_mat.001
f 48 49 50 51
o plane3_Plane
v 1.170001 -26.370001 -0.100001
v 5.230000 -27.639999 -0.100001
v 5.230000 -29.450001 -0.100001
v 0.600001 -29.480001 -0.100001
s 0
usemtl plane3_mat.001
f 52 53 54 55
o plane4_Plane
v 0.720001 26.250000 0.000001
v 1.470001 25.660000 0.000001
v 2.190001 24.660000 0.000001
v 2.680001 23.180000 0.000001
v 2.920001 22.100000 0.000001
v 3.120001 20.030001 0.000001
v 3.330001 16.830000 0.000001
v 3.390001 13.600000 0.000001
v 3.440001 8.700001 0.000001
v 3.520001 0.840001 0.000001
v 3.410001 -3.650001 0.000001
v 3.230000 -8.650001 0.000001
v 2.750001 -15.400001 0.000001
v 1.770001 -23.350000 0.000001
v 0.000001 -33.439999 0.000001
v -1.770001 -23.350000 0.000001
v -2.750001 -15.400001 0.000001
v -3.230000 -8.650001 0.000001
v -3.410001 -3.650001 0.000001
v -3.520001 0.840001 0.000001
v -3.440001 8.700001 0.000001
v -3.390001 13.600000 0.000001
v -3.330001 16.830000 0.000001
v -3.120001 20.030001 0.000001
v -2.920001 22.100000 0.000001
v -2.680001 23.180000 0.000001
v -2.190001 24.660000 0.000001
v -1.470001 25.660000 0.000001
v -0.720001 26.250000 0.000001
v 0.000001 26.330000 0.000001
s 0
usemtl plane4_mat.001
f 56 57 58 59 60 61 62 63 64 65 66 67 68 69 70 71 72 73 74 75 76 77 78 79 80 81 82 83 84 85
o plane5_Plane
v 0.600001 10.960001 0.100001
v 1.420001 9.590000 0.100001
v 1.940001 7.150001 0.100001
v 1.720001 3.760001 0.100001
v 1.160001 0.710001 0.100001
v 0.000001 -2.700001 0.100001
v -1.160001 0.710001 0.100001
v -1.720001 3.760001 0.100001
v -1.940001 7.150001 0.100001
v -1.420001 9.590000 0.100001
v -0.600001 10.960001 0.100001
v 0.000001 11.280001 0.100001
s 0
usemtl plane5_mat.001
f 86 87 88 89 90 91 92 93 94 95 96 97
o plane6_Plane
v 0.210001 10.190001 0.200001
v 0.790001 9.230000 0.200001
v 1.060001 7.380001 0.200001
v 0.850001 3.970001 0.200001
v 0.480001 1.610001 0.200001
v 0.000001 0.110001 0.200001
v -0.480001 1.610001 0.200001
v -0.850001 3.970001 0.200001
v -1.060001 7.380001 0.200001
v -0.790001 9.230000 0.200001
v -0.210001 10.190001 0.200001
v 0.000001 10.420001 0.200001
s 0
usemtl plane6_mat.001
f 98 99 100 101 102 103 104 105 106 107 108 109
o plane7_Plane
v -0.700001 25.440002 0.300001
v -0.660001 25.250000 0.300001
v -0.690001 25.000000 0.300001
v -0.870001 24.690002 0.300001
v -1.090001 24.450001 0.300001
v -1.240001 24.809999 0.300001
v -1.260001 25.110003 0.300001
v -1.180001 25.389999 0.300001
v -1.010001 25.520000 0.300001
v -0.850001 25.530001 0.300001
s 0
usemtl plane7_mat.001
f 110 111 112 113 114 115 116 117 118 119
o plane8_Plane
v 0.850001 25.530001 0.400001
v 1.010001 25.520000 0.400001
v 1.180001 25.389999 0.400001
v 1.260001 25.110003 0.400001
v 1.240001 24.809999 0.400001
v 1.090001 24.450001 0.400001
v 0.870001 24.690002 0.400001
v 0.690001 25.000000 0.400001
v 0.660001 25.250000 0.400001
v 0.700001 25.440002 0.400001
s 0
usemtl plane8_mat.001
f 120 121 122 123 124 125 126 127 128 129
o plane9_Plane
v -2.250001 -20.100000 0.500001
v -2.050001 -21.900002 0.500001
v -2.300001 -22.000000 0.500001
v -2.500001 -20.000000 0.500001
s 0
usemtl plane9_mat.001
f 130 131 132 133
