# Blender 3.6.0
# www.blender.org
mtllib kilo.mtl
o main_hull
v -2.819934 17.739506 0.000000
v 2.819934 17.739506 0.000000
v 0.000000 26.759600 0.000000
v -2.584573 -19.184958 0.000000
v 0.000000 -30.611725 0.000000
v -3.447010 -6.012178 0.000000
v -3.447010 5.798906 0.000000
v 2.584573 -19.184958 0.000000
v -2.430792 19.025894 0.000000
v -1.480333 -24.871477 0.000000
v -3.150110 -12.625432 0.000000
v 3.447010 -6.012178 0.000000
v 3.447010 5.798906 0.000000
v 2.430792 19.025894 0.000000
v 1.480333 -24.871477 0.000000
v 3.150110 -12.625432 0.000000
v -2.972289 15.959962 0.000000
v -3.447010 -0.106636 0.000000
v 2.972289 15.959962 0.000000
v 3.447010 -0.106636 0.000000
s 0
usemtl hull_color
f 2 14 3 9 1 17 7 18 6 11 4 10 5 15 8 16 12 20 13 19
o tail_elevators
v -4.323142 -27.470491 -0.341452
v -0.745278 -27.477724 -0.341452
v -4.359128 -23.851763 -0.341452
v -1.788886 -22.148975 -0.341452
s 0
usemtl plane_color
f 21 22 24 23
o tail_elevator_right
v 4.323142 -27.470493 -0.341452
v 0.745278 -27.477722 -0.341452
v 4.359128 -23.851763 -0.341452
v 1.788886 -22.148975 -0.341452
s 0
usemtl plane_color
f 25 26 28 27
o tower
v -1.000000 -1.748341 0.370000
v 1.000000 -1.748341 0.370000
v -1.000000 4.471313 0.370000
v 1.000000 4.471313 0.370000
v 0.000000 5.313399 0.370000
v 0.000000 -2.784755 0.370000
v 0.500000 -2.568835 0.370000
v -0.500000 -2.568835 0.370000
v -0.567400 5.194643 0.370000
v 0.567400 5.194643 0.370000
s 0
usemtl tower_color
f 38 33 37 31 29 36 34 35 30 32
o tube1
v -1.854966 20.576937 0.280000
v -1.598502 20.497850 0.280000
v -1.154116 22.849722 0.280000
v -0.897651 22.770636 0.280000
s 0
usemtl tube
f 39 40 42 41
o tube2
v 1.858588 20.578524 0.260000
v 1.602386 20.498592 0.260000
v 1.150232 22.848980 0.260000
v 0.894030 22.769049 0.260000
s 0
usemtl tube
f 43 45 46 44
o techholes
v -2.814881 -7.023764 0.080000
v -1.719235 -6.956400 0.080000
v -2.832538 -6.872070 0.080000
v -1.736892 -6.811936 0.080000
v 2.814882 -7.023764 0.080000
v 1.719235 -6.956400 0.080000
v 2.832538 -6.872070 0.080000
v 1.736892 -6.811936 0.080000
s 0
usemtl tube
f 47 48 50 49
f 51 52 54 53
o techholes.001
v -2.773230 -7.856788 0.080000
v -1.677584 -7.789423 0.080000
v -2.790887 -7.705093 0.080000
v -1.695241 -7.644960 0.080000
v 2.773230 -7.856788 0.080000
v 1.677584 -7.789423 0.080000
v 2.790886 -7.705093 0.080000
v 1.695241 -7.644960 0.080000
s 0
usemtl tube
f 55 56 58 57
f 59 60 62 61
o techholes.002
v -2.721166 -8.616922 0.080000
v -1.625520 -8.549558 0.080000
v -2.738823 -8.465227 0.080000
v -1.643177 -8.405094 0.080000
v 2.721166 -8.616922 0.080000
v 1.625519 -8.549558 0.080000
v 2.738823 -8.465227 0.080000
v 1.643177 -8.405094 0.080000
s 0
usemtl tube
f 63 64 66 65
f 67 68 70 69
o techholes.003
v -2.686457 -9.394411 0.080000
v -1.590811 -9.327046 0.080000
v -2.704114 -9.242716 0.080000
v -1.608468 -9.182583 0.080000
v 2.686457 -9.394410 0.080000
v 1.590810 -9.327046 0.080000
v 2.704113 -9.242716 0.080000
v 1.608468 -9.182583 0.080000
s 0
usemtl tube
f 71 72 74 73
f 75 76 78 77
o techholes.004
v -2.653483 -10.138926 0.080000
v -1.557837 -10.071561 0.080000
v -2.671140 -9.987230 0.080000
v -1.575494 -9.927097 0.080000
v 2.653483 -10.138926 0.080000
v 1.557837 -10.071561 0.080000
v 2.671139 -9.987230 0.080000
v 1.575494 -9.927097 0.080000
s 0
usemtl tube
f 79 80 82 81
f 83 84 86 85
o techholes.005
v -2.596212 -10.954595 0.080000
v -1.500566 -10.887230 0.080000
v -2.613870 -10.802899 0.080000
v -1.518224 -10.742766 0.080000
v 2.596212 -10.954595 0.080000
v 1.500566 -10.887230 0.080000
v 2.613869 -10.802900 0.080000
v 1.518223 -10.742766 0.080000
s 0
usemtl tube
f 87 88 90 89
f 91 92 94 93
o techholes.006
v -2.556297 -11.792824 0.080000
v -1.460651 -11.725459 0.080000
v -2.573954 -11.641129 0.080000
v -1.478308 -11.580996 0.080000
v 2.556297 -11.792824 0.080000
v 1.460651 -11.725459 0.080000
v 2.573954 -11.641129 0.080000
v 1.478309 -11.580996 0.080000
s 0
usemtl tube
f 95 96 98 97
f 99 100 102 101
o bow_bulb
v 1.006805 25.861019 -0.310000
v 1.720348 22.448174 -0.310000
v 1.704918 24.920118 -0.310000
v 1.397096 25.529268 -0.310000
v 0.496559 26.087811 -0.310000
v 1.787823 24.340958 -0.310000
v 1.547912 20.315479 -0.310000
v -1.006805 25.861019 -0.310000
v -1.720348 22.448174 -0.310000
v -1.704918 24.920118 -0.310000
v -1.397096 25.529268 -0.310000
v -0.496559 26.087811 -0.310000
v 0.000000 26.125298 -0.310000
v 0.000000 26.125298 -0.310000
v -1.547912 20.315479 -0.310000
v -1.787823 24.340958 -0.310000
s 0
usemtl bulb_color
f 111 118 112 113 110 114 115 107 103 106 105 108 104 109 117
o _propulsor
v -0.168961 -28.844439 0.180000
v 0.168961 -28.844439 0.180000
v -0.168961 -28.506517 0.180000
v 0.168961 -28.506517 0.180000
s 0
f 119 120 122 121
o _screw1
v -2.018487 -29.498358 0.180000
v -0.388046 -29.101652 0.180000
v -0.601590 -28.291910 0.180000
s 0
usemtl screw1
f 124 125 123
o _bowsensors
v -0.350580 23.649420 0.160000
v 0.350580 23.649420 0.160000
v -0.350580 24.350580 0.160000
v 0.350580 24.350580 0.160000
s 0
f 126 127 129 128
o _decoytube1
v -1.884784 -13.391343 0.140027
v -1.434419 -13.391343 0.140027
v -1.884784 -12.940978 0.140027
v -1.434419 -12.940978 0.140027
s 0
f 130 131 133 132
o _decoytube2
v 1.434419 -13.391343 0.140027
v 1.884784 -13.391343 0.140027
v 1.434419 -12.940978 0.140027
v 1.884784 -12.940978 0.140027
s 0
f 134 135 137 136
