# Blender 3.6.0
# www.blender.org
mtllib november.mtl
o main_hull
v -6.000000 -19.000000 0.000000
v 6.000000 -19.000000 0.000000
v -6.000000 32.191051 0.000000
v 6.000000 32.191051 0.000000
v -5.666414 36.886333 0.000000
v -3.286850 41.385452 0.000000
v -1.695512 42.095001 0.000000
v 0.000000 42.248413 0.000000
v -5.332010 38.729816 0.000000
v -4.642194 40.160549 0.000000
v 5.666414 36.886333 0.000000
v 3.286850 41.385452 0.000000
v 1.695512 42.095001 0.000000
v 5.332010 38.729816 0.000000
v 4.642194 40.160549 0.000000
v -5.893795 -26.336681 0.000000
v -5.362766 -37.063450 0.000000
v -4.340436 -46.303337 0.000000
v 5.893795 -26.336681 0.000000
v 5.362766 -37.063450 0.000000
v 4.340436 -46.303337 0.000000
s 0
usemtl main_color
f 3 5 9 10 6 7 8 13 12 15 14 11 4 2 19 20 21 18 17 16 1
o stern_pylons
v -3.254594 -52.000000 -0.107223
v -4.340436 -46.303337 -0.110221
v -2.211364 -46.303337 -0.107223
v 3.254594 -52.000000 -0.107223
v 4.340435 -46.303337 -0.110221
v 2.211364 -46.303337 -0.107223
s 0
usemtl main_color
f 23 24 22
f 26 25 27
o stern_planes
v -9.333451 -45.543400 -0.181512
v -4.208239 -45.517803 -0.247446
v -9.061750 -43.000000 -0.181512
v -4.727818 -42.114513 -0.188216
v 9.333451 -45.543400 -0.181512
v 4.208239 -45.517803 -0.247446
v 9.061749 -43.000000 -0.181512
v 4.727818 -42.114513 -0.188216
s 0
usemtl planes
f 28 29 31 30
f 32 34 35 33
o tailfin
v -0.274463 -44.595150 1.272985
v 0.274463 -44.595150 1.272985
v -0.274463 -36.490734 1.272985
v 0.274463 -36.490734 1.272985
s 0
usemtl planes
f 36 37 39 38
o sail
v -1.813590 1.733822 1.150900
v 1.813590 1.733822 1.150900
v -1.813590 13.843010 1.150900
v 1.813590 13.843010 1.150900
v 0.000000 14.880413 1.150900
v -0.906795 14.732212 1.150900
v 0.906795 14.732212 1.150900
v 0.000000 -0.874503 1.150900
v 1.085638 -0.548462 1.150900
v -1.085638 -0.548462 1.150900
s 0
usemtl sail
f 40 49 47 48 41 43 46 44 45 42
o tube1
v -2.954738 40.300304 0.628974
v -1.845262 40.300304 0.628974
v -2.817878 40.666954 0.628974
v -1.982123 40.666954 0.628974
v -2.400000 40.836628 0.628974
v -2.400000 38.954174 0.628974
v -1.974786 39.665409 0.628974
v -2.825214 39.665409 0.628974
v -2.612607 39.156673 0.628974
v -2.187393 39.156673 0.628974
s 0
usemtl tube
f 50 57 58 55 59 56 51 53 54 52
o tube0
v -0.554738 40.819679 0.628974
v 0.554738 40.819679 0.628974
v -0.417878 41.186329 0.628974
v 0.417878 41.186329 0.628974
v 0.000000 41.356003 0.628974
v 0.000000 39.473549 0.628974
v 0.425214 40.184784 0.628974
v -0.425214 40.184784 0.628974
v -0.212607 39.676048 0.628974
v 0.212607 39.676048 0.628974
s 0
usemtl tube
f 60 67 68 65 69 66 61 63 64 62
o tube2
v 1.845262 40.300304 0.628974
v 2.954738 40.300304 0.628974
v 1.982123 40.666954 0.628974
v 2.817878 40.666954 0.628974
v 2.400000 40.836628 0.628974
v 2.400000 38.954174 0.628974
v 2.825214 39.665409 0.628974
v 1.974786 39.665409 0.628974
v 2.187393 39.156673 0.628974
v 2.612607 39.156673 0.628974
s 0
usemtl tube
f 70 77 78 75 79 76 71 73 74 72
o techhole
v -4.747504 28.540968 0.459692
v -3.915171 28.540968 0.459692
v -4.747504 28.741270 0.459692
v -3.915171 28.741270 0.459692
v 4.747504 28.540968 0.459692
v 3.915171 28.540968 0.459692
v 4.747504 28.741270 0.459692
v 3.915171 28.741270 0.459692
v -4.747504 25.917007 0.459692
v -3.915171 25.917007 0.459692
v -4.747504 26.117310 0.459692
v -3.915171 26.117310 0.459692
v 4.747504 25.917007 0.459692
v 3.915171 25.917007 0.459692
v 4.747504 26.117310 0.459692
v 3.915171 26.117310 0.459692
v -4.747504 23.293047 0.459692
v -3.915171 23.293047 0.459692
v -4.747504 23.493349 0.459692
v -3.915171 23.493349 0.459692
v 4.747504 23.293047 0.459692
v 3.915171 23.293047 0.459692
v 4.747504 23.493349 0.459692
v 3.915171 23.493349 0.459692
v -4.747504 20.669086 0.459692
v -3.915171 20.669086 0.459692
v -4.747504 20.869389 0.459692
v -3.915171 20.869389 0.459692
v 4.747504 20.669086 0.459692
v 3.915171 20.669086 0.459692
v 4.747504 20.869389 0.459692
v 3.915171 20.869389 0.459692
v -4.747504 18.045126 0.459692
v -3.915171 18.045126 0.459692
v -4.747504 18.245428 0.459692
v -3.915171 18.245428 0.459692
v 4.747504 18.045126 0.459692
v 3.915171 18.045126 0.459692
v 4.747504 18.245428 0.459692
v 3.915171 18.245428 0.459692
v -4.747504 15.421165 0.459692
v -3.915171 15.421165 0.459692
v -4.747504 15.621468 0.459692
v -3.915171 15.621468 0.459692
v 4.747504 15.421165 0.459692
v 3.915171 15.421165 0.459692
v 4.747504 15.621468 0.459692
v 3.915171 15.621468 0.459692
v -4.747504 12.797205 0.459692
v -3.915171 12.797205 0.459692
v -4.747504 12.997507 0.459692
v -3.915171 12.997507 0.459692
v 4.747504 12.797205 0.459692
v 3.915171 12.797205 0.459692
v 4.747504 12.997507 0.459692
v 3.915171 12.997507 0.459692
v -4.747504 10.173244 0.459692
v -3.915171 10.173244 0.459692
v -4.747504 10.373547 0.459692
v -3.915171 10.373547 0.459692
v 4.747504 10.173244 0.459692
v 3.915171 10.173244 0.459692
v 4.747504 10.373547 0.459692
v 3.915171 10.373547 0.459692
v -4.747504 7.549284 0.459692
v -3.915171 7.549284 0.459692
v -4.747504 7.749586 0.459692
v -3.915171 7.749586 0.459692
v 4.747504 7.549284 0.459692
v 3.915171 7.549284 0.459692
v 4.747504 7.749586 0.459692
v 3.915171 7.749586 0.459692
v -4.747504 4.925323 0.459692
v -3.915171 4.925323 0.459692
v -4.747504 5.125626 0.459692
v -3.915171 5.125626 0.459692
v 4.747504 4.925323 0.459692
v 3.915171 4.925323 0.459692
v 4.747504 5.125626 0.459692
v 3.915171 5.125626 0.459692
v -4.747504 2.301363 0.459692
v -3.915171 2.301363 0.459692
v -4.747504 2.501665 0.459692
v -3.915171 2.501665 0.459692
v 4.747504 2.301363 0.459692
v 3.915171 2.301363 0.459692
v 4.747504 2.501665 0.459692
v 3.915171 2.501665 0.459692
v -4.747504 -0.322599 0.459692
v -3.915171 -0.322599 0.459692
v -4.747504 -0.122297 0.459692
v -3.915171 -0.122297 0.459692
v 4.747504 -0.322599 0.459692
v 3.915171 -0.322599 0.459692
v 4.747504 -0.122297 0.459692
v 3.915171 -0.122297 0.459692
v -4.747504 -2.946562 0.459692
v -3.915171 -2.946562 0.459692
v -4.747504 -2.746260 0.459692
v -3.915171 -2.746260 0.459692
v 4.747504 -2.946562 0.459692
v 3.915171 -2.946562 0.459692
v 4.747504 -2.746260 0.459692
v 3.915171 -2.746260 0.459692
v -4.747504 -5.570524 0.459692
v -3.915171 -5.570524 0.459692
v -4.747504 -5.370222 0.459692
v -3.915171 -5.370222 0.459692
v 4.747504 -5.570524 0.459692
v 3.915171 -5.570524 0.459692
v 4.747504 -5.370222 0.459692
v 3.915171 -5.370222 0.459692
v -4.747504 -8.194487 0.459692
v -3.915171 -8.194487 0.459692
v -4.747504 -7.994181 0.459692
v -3.915171 -7.994181 0.459692
v 4.747504 -8.194487 0.459692
v 3.915171 -8.194487 0.459692
v 4.747504 -7.994181 0.459692
v 3.915171 -7.994181 0.459692
v -4.747504 -10.818445 0.459692
v -3.915171 -10.818445 0.459692
v -4.747504 -10.618143 0.459692
v -3.915171 -10.618143 0.459692
v 4.747504 -10.818445 0.459692
v 3.915171 -10.818445 0.459692
v 4.747504 -10.618143 0.459692
v 3.915171 -10.618143 0.459692
v -4.747504 -13.442408 0.459692
v -3.915171 -13.442408 0.459692
v -4.747504 -13.242105 0.459692
v -3.915171 -13.242105 0.459692
v 4.747504 -13.442408 0.459692
v 3.915171 -13.442408 0.459692
v 4.747504 -13.242105 0.459692
v 3.915171 -13.242105 0.459692
v -4.747504 -16.066370 0.459692
v -3.915171 -16.066370 0.459692
v -4.747504 -15.866068 0.459692
v -3.915171 -15.866068 0.459692
v 4.747504 -16.066370 0.459692
v 3.915171 -16.066370 0.459692
v 4.747504 -15.866068 0.459692
v 3.915171 -15.866068 0.459692
v -4.747504 -18.690332 0.459692
v -3.915171 -18.690332 0.459692
v -4.747504 -18.490030 0.459692
v -3.915171 -18.490030 0.459692
v 4.747504 -18.690332 0.459692
v 3.915171 -18.690332 0.459692
v 4.747504 -18.490030 0.459692
v 3.915171 -18.490030 0.459692
s 0
usemtl techhole
f 80 81 83 82
f 84 86 87 85
f 88 89 91 90
f 92 94 95 93
f 96 97 99 98
f 100 102 103 101
f 104 105 107 106
f 108 110 111 109
f 112 113 115 114
f 116 118 119 117
f 120 121 123 122
f 124 126 127 125
f 128 129 131 130
f 132 134 135 133
f 136 137 139 138
f 140 142 143 141
f 144 145 147 146
f 148 150 151 149
f 152 153 155 154
f 156 158 159 157
f 160 161 163 162
f 164 166 167 165
f 168 169 171 170
f 172 174 175 173
f 176 177 179 178
f 180 182 183 181
f 184 185 187 186
f 188 190 191 189
f 192 193 195 194
f 196 198 199 197
f 200 201 203 202
f 204 206 207 205
f 208 209 211 210
f 212 214 215 213
f 216 217 219 218
f 220 222 223 221
f 224 225 227 226
f 228 230 231 229
o decoytube
v -5.579304 -25.417696 0.481460
v -5.101882 -25.406925 0.481460
v -5.624414 -23.418205 0.481460
v -5.146993 -23.407434 0.481460
v 5.579303 -25.417694 0.481460
v 5.101882 -25.406923 0.481460
v 5.624413 -23.418203 0.481460
v 5.146992 -23.407433 0.481460
s 0
usemtl tube
f 232 233 235 234
f 236 238 239 237
o _bowsensors
v -0.398419 37.821724 0.500872
v 0.398419 37.821724 0.500872
v -0.398419 38.618561 0.500872
v 0.398419 38.618561 0.500872
s 0
f 240 241 243 242
o _towedarray
v -0.522652 -45.059116 1.142144
v 0.522652 -45.059116 1.142144
v -0.522652 -44.013813 1.142144
v 0.522652 -44.013813 1.142144
s 0
f 244 245 247 246
o _screw1
v -5.933139 -51.011299 0.000000
v -3.490755 -50.761028 -0.083903
v -3.707893 -49.621853 -0.062461
s 0
usemtl screw1
f 249 250 248
o _propulsor0
v -3.401927 -50.424904 0.182874
v -3.117605 -50.424904 0.182874
v -3.401927 -50.140579 0.182874
v -3.117605 -50.140579 0.182874
s 0
f 251 252 254 253
o _propulsor1
v 3.117605 -50.424904 0.182874
v 3.401927 -50.424904 0.182874
v 3.117605 -50.140579 0.182874
v 3.401927 -50.140579 0.182874
s 0
f 255 256 258 257
