# Blender 3.6.0
# www.blender.org
mtllib stork.mtl
o _activesonar0_Plane
v 0.400001 31.400002 0.050001
v 0.400001 30.600000 0.050001
v -0.400001 30.600000 0.050001
v -0.400001 31.400002 0.050001
s 0
usemtl None.001
f 1 2 3 4
o _hydrophone0_Plane
v 0.400001 31.400002 0.050001
v 0.400001 30.600000 0.050001
v -0.400001 30.600000 0.050001
v -0.400001 31.400002 0.050001
s 0
usemtl None.001
f 5 6 7 8
o _hydrophone1_Plane
v 6.400001 -29.600000 0.050001
v 6.400001 -30.400002 0.050001
v 5.600000 -30.400002 0.050001
v 5.600000 -29.600000 0.050001
s 0
usemtl None.001
f 9 10 11 12
o _propulsor0_Plane
v 0.400001 -33.599998 0.050001
v 0.400001 -34.400002 0.050001
v -0.400001 -34.400002 0.050001
v -0.400001 -33.599998 0.050001
s 0
usemtl None.001
f 13 14 15 16
o _screw0_Plane
v 4.200001 -34.900002 0.000001
v 0.600001 -34.599998 0.000001
v 1.100001 -33.400002 0.000001
s 0
usemtl _screw0_mat.002
f 17 18 19
o _screw1_Plane
v 4.000000 -31.500000 0.000001
v 2.000001 -35.700001 0.000001
v -2.000001 -35.700001 0.000001
v -4.000000 -31.500000 0.000001
s 0
usemtl _screw1_mat.002
f 20 21 22 23
o _tube0_Plane
v -4.300001 25.400002 0.050001
v -4.300001 24.600000 0.050001
v -5.100000 24.600000 0.050001
v -5.100000 25.400002 0.050001
s 0
usemtl None.001
f 24 25 26 27
o _tube1_Plane
v 5.100000 25.400002 0.050001
v 5.100000 24.600000 0.050001
v 4.300001 24.600000 0.050001
v 4.300001 25.400002 0.050001
s 0
usemtl None.001
f 28 29 30 31
o _tube2_Plane
v -4.100000 -20.600000 0.050001
v -4.100000 -21.400002 0.050001
v -4.900001 -21.400002 0.050001
v -4.900001 -20.600000 0.050001
s 0
usemtl None.001
f 32 33 34 35
o _tube3_Plane
v 4.900001 -20.600000 0.050001
v 4.900001 -21.400002 0.050001
v 4.100000 -21.400002 0.050001
v 4.100000 -20.600000 0.050001
s 0
usemtl None.001
f 36 37 38 39
o plane0_Plane
v 1.000001 -26.000000 -0.100001
v 1.000001 -22.000000 -0.100001
v 6.000000 -29.000000 -0.100001
v 6.000000 -30.000000 -0.100001
s 0
usemtl plane0_mat.001
f 40 41 42 43
o plane1_Plane
v 1.500001 34.799999 0.000001
v 2.800001 34.000000 0.000001
v 3.500001 33.000000 0.000001
v 4.000000 32.200001 0.000001
v 4.700001 30.000000 0.000001
v 5.000000 28.000000 0.000001
v 5.000000 -18.000000 0.000001
v 4.500000 -23.000000 0.000001
v 3.000001 -28.000000 0.000001
v 2.000001 -31.000000 0.000001
v 0.000001 -35.000000 0.000001
v -2.000001 -31.000000 0.000001
v -3.000001 -28.000000 0.000001
v -4.500000 -23.000000 0.000001
v -5.000000 -18.000000 0.000001
v -5.000000 28.000000 0.000001
v -4.700001 30.000000 0.000001
v -4.000000 32.200001 0.000001
v -3.500001 33.000000 0.000001
v -2.800001 34.000000 0.000001
v -1.500001 34.799999 0.000001
v 0.000001 35.000000 0.000001
s 0
usemtl plane1_mat.001
f 44 45 46 47 48 49 50 51 52 53 54 55 56 57 58 59 60 61 62 63 64 65
o plane2_Plane
v 1.000001 14.700001 0.100001
v 1.700001 14.000001 0.100001
v 2.000001 13.000001 0.100001
v 2.000001 4.000000 0.100001
v 1.700001 2.000001 0.100001
v 1.000001 0.500001 0.100001
v 0.000001 -1.000001 0.100001
v -1.000001 0.500001 0.100001
v -1.700001 2.000001 0.100001
v -2.000001 4.000000 0.100001
v -2.000001 13.000001 0.100001
v -1.700001 14.000001 0.100001
v -1.000001 14.700001 0.100001
v 0.000001 15.000001 0.100001
s 0
usemtl plane2_mat.001
f 66 67 68 69 70 71 72 73 74 75 76 77 78 79
o plane3_Plane
v -5.000000 27.700001 0.200001
v -5.000000 24.299999 0.200001
v -5.300001 24.000000 0.200001
v -5.300001 28.000000 0.200001
s 0
usemtl plane3_mat.001
f 80 81 82 83
o plane4_Plane
v 5.300001 28.000000 0.300001
v 5.300001 24.000000 0.300001
v 5.000000 24.299999 0.300001
v 5.000000 27.700001 0.300001
s 0
usemtl plane4_mat.001
f 84 85 86 87
o plane5_Plane
v -4.800001 -20.100000 0.400001
v -4.600000 -21.900002 0.400001
v -4.900001 -22.000000 0.400001
v -5.100000 -20.000000 0.400001
s 0
usemtl plane5_mat.001
f 88 89 90 91
o plane6_Plane
v 5.100000 -20.000000 0.500001
v 4.900001 -22.000000 0.500001
v 4.600000 -21.900002 0.500001
v 4.800001 -20.100000 0.500001
s 0
usemtl plane6_mat.001
f 92 93 94 95
